HIERARCHY
ROOT Hips
{
	OFFSET 0.00000 0.00000 0.00000
	CHANNELS 6 Xposition Yposition Zposition Zrotation Yrotation Xrotation 
	JOINT LHipJoint
	{
		OFFSET 0 0 0
		CHANNELS 3 Zrotation Yrotation Xrotation
		JOINT LeftHip
		{
			OFFSET 1.75344 -1.53157 0.77399
			CHANNELS 3 Zrotation Yrotation Xrotation
			JOINT LeftKnee
			{
				OFFSET 2.25415 -6.19323 0.00000
				CHANNELS 3 Zrotation Yrotation Xrotation
				JOINT LeftAnkle
				{
					OFFSET 2.30342 -6.32861 0.00000
					CHANNELS 3 Zrotation Yrotation Xrotation
					JOINT LeftToe
					{
						OFFSET 0.10958 -0.30108 1.49206
						CHANNELS 3 Zrotation Yrotation Xrotation
						End Site
						{
							OFFSET 0.00000 -0.00000 0.77783
						}
					}
				}
			}
		}
	}
	JOINT RHipJoint
	{
		OFFSET 0 0 0
		CHANNELS 3 Zrotation Yrotation Xrotation
		JOINT RightHip
		{
			OFFSET -1.81912 -1.53156 0.77399
			CHANNELS 3 Zrotation Yrotation Xrotation
			JOINT RightKnee
			{
				OFFSET -2.22882 -6.12365 0.00000
				CHANNELS 3 Zrotation Yrotation Xrotation
				JOINT RightAnkle
				{
					OFFSET -2.21943 -6.09785 0.00000
					CHANNELS 3 Zrotation Yrotation Xrotation
					JOINT RightToe
					{
						OFFSET -0.18931 -0.52012 1.59379
						CHANNELS 3 Zrotation Yrotation Xrotation
						End Site
						{
							OFFSET -0.00000 -0.00000 0.84686
						}
					}
				}
			}
		}
	}
	JOINT lowerback
	{
		OFFSET 0 0 0
		CHANNELS 3 Zrotation Yrotation Xrotation
		JOINT Chest
		{
			OFFSET -0.00200 1.66634 -0.14248
			CHANNELS 3 Zrotation Yrotation Xrotation
			JOINT Chest2
			{
				OFFSET -0.00875 1.64542 0.09514
				CHANNELS 3 Zrotation Yrotation Xrotation
				JOINT lowerneck
				{
					OFFSET 0 0 0
					CHANNELS 3 Zrotation Yrotation Xrotation
					JOINT Neck
					{
						OFFSET 0.02257 1.59605 0.00839
						CHANNELS 3 Zrotation Yrotation Xrotation
						JOINT Head
						{
							OFFSET -0.10214 1.57530 -0.23335
							CHANNELS 3 Zrotation Yrotation Xrotation
							End Site
							{
								OFFSET -0.03588 1.60717 -0.08062
							}
						}
					}
				}
				JOINT LeftCollar
				{
					OFFSET 0 0 0
					CHANNELS 3 Zrotation Yrotation Xrotation
					JOINT LeftShoulder
					{
						OFFSET 2.54983 1.10186 0.40078
CHANNELS 3 Zrotation Xrotation Yrotation
						JOINT LeftElbow
						{
OFFSET 0 -4.288400 0.000000
CHANNELS 3 Zrotation Xrotation Yrotation
							JOINT LeftWrist
							{
OFFSET 0 -3.065520 -0.000000
CHANNELS 3 Zrotation Xrotation Yrotation
								JOINT lhand
								{
									OFFSET 0 0 0
CHANNELS 3 Zrotation Xrotation Yrotation
									JOINT LFingers
									{
OFFSET 0 -0.753040 0.000000
CHANNELS 3 Zrotation Xrotation Yrotation
										End Site
										{
OFFSET 0 -0.607120 0.000000
										}
									}
								}
								JOINT LThumb
								{
OFFSET 0 0.000000 0.000000
CHANNELS 3 Zrotation Xrotation Yrotation
									End Site
									{
OFFSET 0 -0.616390 0.616390
									}
								}
							}
						}
					}
				}
				JOINT RightCollar
				{
					OFFSET 0 0 0
					CHANNELS 3 Zrotation Yrotation Xrotation
					JOINT RightShoulder
					{
						OFFSET -2.60909 1.35448 0.21802
CHANNELS 3 Zrotation Xrotation Yrotation
						JOINT RightElbow
						{
OFFSET 0 -4.521720 -0.000000
CHANNELS 3 Zrotation Xrotation Yrotation
							JOINT RightWrist
							{
OFFSET 0 -2.891400 0.000000
CHANNELS 3 Zrotation Xrotation Yrotation
								JOINT rhand
								{
									OFFSET 0 0 0
CHANNELS 3 Zrotation Xrotation Yrotation
									JOINT RFingers
									{
OFFSET 0 -0.680540 0.000000
CHANNELS 3 Zrotation Xrotation Yrotation
										End Site
										{
OFFSET 0 -0.548670 0.000000
										}
									}
								}
								JOINT RThumb
								{
OFFSET 0 0.000000 0.000000
CHANNELS 3 Zrotation Xrotation Yrotation
									End Site
									{
OFFSET 0 -0.557050 0.557050
									}
								}
							}
						}
					}
				}
			}
		}
	}
}
MOTION
Frames: 9
Frame Time: 0.008333333333333333
10.469331 19.233961 18.408749 -178.794878 183.612838 184.481543 0.000000 0.000000 0.000000 -22.884307 -8.586372 -10.002723 3.153451 10.937923 32.072372 1.796950 11.482075 24.186425 4.991586 -13.373745 -40.785166 0.000000 0.000000 0.000000 22.865093 11.642946 -6.418641 -1.318119 -7.271089 20.521319 -0.178970 -28.138630 20.934651 -0.976951 -6.287819 17.623215 -5.763539 -2.098430 9.359765 3.668723 -3.303939 -5.187736 7.867291 -1.019063 -10.351477 -23.616850 -21.202561 8.322234 23.958268 -30.281526 -7.122501 8.578818 -15.479871 3.858327 0.000000 0.000000 0.000000 8.683527 30.386945 -50.264616 23.056471 -34.146247 7.171784 -14.671464 24.532471 33.201091 0.000000 0.000000 0.000000 -7.125000 0.000000 0.000000 -25.345486 -1.445580 -28.946085 0.000000 0.000000 0.000000 -22.117711 -11.670199 94.589356 -80.125075 -59.628038 -51.458735 10.702689 -8.614202 45.549642 0.000000 0.000000 0.000000 7.125000 0.000000 0.000000 63.386756 64.686374 -36.564627
10.503792 19.268484 18.390846 -178.570634 187.576514 184.286628 0.000000 0.000000 0.000000 -22.979320 -8.301515 -9.587170 3.029353 10.741970 31.414916 1.802449 11.153225 24.190274 4.883558 -13.251236 -40.316698 0.000000 0.000000 0.000000 22.623680 11.582639 -6.243523 -1.360157 -7.381866 20.851758 -0.023710 -28.442489 20.261553 -1.072453 -6.581658 18.482246 -7.341616 -1.960890 10.839896 4.318969 -3.379216 -5.634207 9.671872 -0.814188 -11.636632 -23.686751 -20.877682 7.765902 22.875605 -29.796377 -6.237502 8.304654 -15.169412 3.906781 0.000000 0.000000 0.000000 6.936381 32.570236 -49.170649 23.697612 -34.841342 7.533751 -15.329592 25.059413 33.031472 0.000000 0.000000 0.000000 -7.125000 0.000000 0.000000 -25.678857 -1.306940 -29.357056 0.000000 0.000000 0.000000 -22.009133 -11.390597 96.414468 -79.761824 -59.600115 -51.145405 10.994267 -8.620007 45.539927 0.000000 0.000000 0.000000 7.125000 0.000000 0.000000 63.601468 64.594721 -36.613081
10.550809 19.295832 18.374104 -178.509402 191.547048 184.274771 0.000000 0.000000 0.000000 -22.957218 -8.136728 -9.467042 2.931316 10.581995 30.883755 1.855533 10.068507 24.480739 5.215767 -13.613647 -41.728562 0.000000 0.000000 0.000000 22.448052 11.527607 -6.384616 -1.391697 -7.463260 21.095416 0.068138 -28.560758 19.816672 -1.127387 -6.743030 18.956696 -7.358632 -1.606212 11.827088 4.202796 -2.983870 -6.086112 9.577394 -0.533294 -12.860275 -23.866223 -20.728266 7.997301 22.656851 -29.747034 -5.587049 8.272634 -15.147205 4.039694 0.000000 0.000000 0.000000 7.110927 34.485797 -49.698094 24.411819 -35.590510 7.947629 -16.840498 25.179459 32.814638 0.000000 0.000000 0.000000 -7.125000 0.000000 0.000000 -26.423715 -1.173892 -30.379611 0.000000 0.000000 0.000000 -21.112138 -10.423497 97.124348 -79.211084 -59.554677 -50.670593 10.616495 -8.186788 45.465166 0.000000 0.000000 0.000000 7.125000 0.000000 0.000000 63.168089 64.668454 -36.368430
10.600894 19.320589 18.357226 -178.485603 195.392436 184.329015 0.000000 0.000000 0.000000 -22.917999 -8.075144 -9.415468 2.843015 10.436179 30.401371 1.909605 8.765795 24.800232 5.653092 -14.076314 -43.559274 0.000000 0.000000 0.000000 22.273396 11.347191 -6.610730 -1.416144 -7.526023 21.283454 0.131220 -28.591506 19.473123 -1.162558 -6.844921 19.256782 -7.047543 -1.289507 12.332798 3.926029 -2.571036 -6.272181 9.053484 -0.324522 -13.501846 -23.907521 -20.671155 8.118392 22.802258 -29.772689 -5.205846 8.305338 -15.169679 4.174610 0.000000 0.000000 0.000000 7.656021 35.852406 -50.438943 25.101546 -36.305833 8.350723 -18.243406 25.027665 32.577045 0.000000 0.000000 0.000000 -7.125000 0.000000 0.000000 -27.117730 -1.020708 -31.320825 0.000000 0.000000 0.000000 -20.028801 -9.854955 97.490492 -78.593404 -59.501895 -50.138221 10.173356 -7.799735 45.377604 0.000000 0.000000 0.000000 7.125000 0.000000 0.000000 62.659587 64.754845 -36.081697
10.654663 19.340386 18.339262 -178.501489 198.807417 184.509876 0.000000 0.000000 0.000000 -22.883598 -8.300671 -9.438259 2.773847 10.319230 30.017162 1.941378 7.127594 25.064070 6.211319 -14.619204 -45.803667 0.000000 0.000000 0.000000 22.066566 10.736417 -6.956139 -1.422071 -7.541115 21.328669 0.130426 -28.423964 19.351958 -1.152232 -6.815470 19.169834 -6.459926 -1.219423 11.462769 3.515181 -2.352474 -5.548919 8.089908 -0.402672 -12.191945 -23.418584 -20.834114 7.438389 23.723246 -29.818943 -5.616145 8.428091 -15.188987 4.270784 0.000000 0.000000 0.000000 8.427798 35.491721 -51.032669 25.668388 -36.876585 8.689044 -18.818008 24.168512 32.294143 0.000000 0.000000 0.000000 -7.125000 0.000000 0.000000 -27.416396 -0.795854 -31.654747 0.000000 0.000000 0.000000 -18.735458 -11.016257 97.286289 -77.848634 -59.433522 -49.496713 9.868458 -7.806945 45.281491 0.000000 0.000000 0.000000 7.125000 0.000000 0.000000 62.244583 64.795172 -35.809611
10.706990 19.357912 18.331035 -178.559205 202.453184 184.925850 0.000000 0.000000 0.000000 -22.733049 -8.550538 -9.766083 2.721304 10.229506 29.723285 1.949352 5.904048 25.197947 6.558774 -14.947248 -47.182365 0.000000 0.000000 0.000000 21.914476 10.713243 -7.378933 -1.426952 -7.553538 21.365951 0.351076 -29.070732 18.573273 -1.364974 -7.351766 20.781678 -6.113011 -1.021434 10.884034 3.313048 -2.012210 -5.373265 7.541023 -0.319921 -11.706161 -23.422120 -20.830006 7.400113 24.239892 -29.825315 -5.754406 8.564980 -15.206925 4.335550 0.000000 0.000000 0.000000 8.908750 36.113639 -51.829631 26.256361 -37.456929 9.044638 -18.421727 23.025422 32.096019 0.000000 0.000000 0.000000 -7.125000 0.000000 0.000000 -27.245018 -0.589786 -31.298586 0.000000 0.000000 0.000000 -17.906173 -11.148583 97.194162 -77.292890 -59.380546 -49.018233 9.929462 -7.864567 45.074384 0.000000 0.000000 0.000000 7.125000 0.000000 0.000000 61.932531 64.667748 -35.399775
10.758316 19.373859 18.329568 -178.645970 206.259217 185.505095 0.000000 0.000000 0.000000 -22.501839 -8.817309 -10.305734 2.680304 10.158689 29.492136 1.940797 4.968456 25.241574 6.759860 -15.126093 -47.959886 0.000000 0.000000 0.000000 21.800399 11.098123 -7.855466 -1.431107 -7.564109 21.397724 0.725508 -30.282993 17.337977 -1.732623 -8.280942 23.573237 -5.933250 -0.734622 10.507585 3.255856 -1.587430 -5.577895 7.280119 -0.125434 -11.792681 -23.767651 -20.709880 7.807479 24.475745 -29.803990 -5.703753 8.711686 -15.223911 4.378505 0.000000 0.000000 0.000000 9.187741 37.417919 -52.767727 26.859008 -38.043935 9.412226 -17.351223 21.685153 31.956768 0.000000 0.000000 0.000000 -7.125000 0.000000 0.000000 -26.747222 -0.396765 -30.463202 0.000000 0.000000 0.000000 -17.399150 -10.566344 97.179864 -76.868416 -59.338264 -48.652966 10.244564 -7.957197 44.790200 0.000000 0.000000 0.000000 7.125000 0.000000 0.000000 61.691973 64.423830 -34.894279
10.800494 19.378970 18.339230 -179.071247 210.013978 185.950917 0.000000 0.000000 0.000000 -22.093508 -9.079244 -10.395589 2.654395 10.113392 29.344713 1.923037 4.406569 25.204330 6.785689 -15.148733 -48.058983 0.000000 0.000000 0.000000 21.983350 11.198502 -7.912209 -1.429552 -7.560230 21.386091 1.499630 -32.018753 14.318353 -2.734066 -10.101262 29.441765 -5.648264 -0.574941 10.151238 3.252151 -1.310116 -5.418959 7.035294 -0.037569 -11.444262 -23.284496 -20.699755 7.341296 24.261744 -29.672489 -5.517694 8.577968 -15.134216 4.367682 0.000000 0.000000 0.000000 9.355856 38.337949 -53.101104 27.533204 -38.677959 9.832427 -17.327660 20.408159 31.793221 0.000000 0.000000 0.000000 -7.125000 0.000000 0.000000 -26.751018 -0.243772 -30.391597 0.000000 0.000000 0.000000 -16.812481 -10.545359 97.315770 -76.411139 -59.290097 -48.259791 10.657375 -8.215472 44.687565 0.000000 0.000000 0.000000 7.125000 0.000000 0.000000 61.851280 64.248313 -34.785618
10.843950 19.380725 18.344941 -179.464212 213.552833 186.484549 0.000000 0.000000 0.000000 -21.690124 -9.510954 -10.570471 2.627169 10.065542 29.189245 1.905487 3.816988 25.182474 6.804123 -15.164713 -48.129430 0.000000 0.000000 0.000000 22.145738 11.133350 -8.161777 -1.430314 -7.562174 21.391921 2.001981 -33.260860 12.497283 -3.283965 -11.124406 32.719204 -5.390783 -0.472327 9.842250 3.244564 -1.118822 -5.325354 6.823943 0.017138 -11.183841 -22.854782 -20.661758 6.938472 24.126376 -29.518366 -5.387165 8.485337 -15.039364 4.348546 0.000000 0.000000 0.000000 9.512064 39.251753 -53.330893 28.211446 -39.307011 10.258522 -17.834375 19.226659 31.566772 0.000000 0.000000 0.000000 -7.125000 0.000000 0.000000 -27.014675 -0.067204 -30.692358 0.000000 0.000000 0.000000 -16.271275 -10.481223 97.413581 -75.948507 -59.240287 -47.862138 10.918219 -8.390022 44.670771 0.000000 0.000000 0.000000 7.125000 0.000000 0.000000 62.034440 64.162963 -34.814456
